
            <svg width="3361.846878926194" height="1670.171378874063" xmlns="http://www.w3.org/2000/svg" xmlns:xlink="http://www.w3.org/1999/xlink" version="1.1">
                <rect fill="#1b6394" width="3361.846878926194" height="1670.171378874063"/>
                <g transform="scale(18.092343946309704) translate(10, 10)">
                    <g id="SvgjsG1815" rel="mainfill" name="main_text" xmlns:name="mainText_mainfill" transform="translate(-0.8330011367797852,-6.108945846557646)" fill="#ffffff"><path fill="#ffffff" d="M22.148 49 l-0.539 -9.457 l-11.613 0 l-4.557 9.457 l-4.606 0 l11.123 -23.128 c1.666 -3.528 3.528 -6.811 5.39 -9.604 c1.127 -0.147 2.254 -0.098 3.381 -0.098 c1.176 0 2.254 -0.049 3.283 0.098 c0.735 2.793 1.225 6.076 1.421 9.604 l1.323 23.128 l-4.606 0 z M11.809 35.672 l9.506 0 l-0.441 -8.673 c-0.147 -2.744 -0.49 -5.439 -0.882 -7.448 c-1.127 2.009 -2.646 4.704 -3.969 7.448 z M43.022 26.313 c2.891 0 5.488 0.539 7.644 1.421 c-0.098 1.225 -0.147 2.45 -0.343 3.773 c-1.323 -0.441 -4.459 -1.274 -8.134 -1.274 c-1.911 0 -4.018 0.539 -4.018 0.539 s-1.421 4.655 -1.911 7.105 c-0.539 2.499 -1.127 7.154 -1.127 7.154 s1.617 0.539 3.773 0.539 c3.92 0 7.693 -1.029 8.722 -1.372 c-0.343 1.323 -0.833 2.597 -1.274 3.822 c-2.548 0.931 -5.39 1.47 -8.281 1.47 s-5.488 -0.539 -7.644 -1.47 c0.147 -3.038 0.588 -6.468 1.372 -10.143 c0.735 -3.626 1.764 -7.056 2.94 -10.143 c2.548 -0.882 5.39 -1.421 8.281 -1.421 z M63.062999999999995 45.57 c2.156 0 4.312 -0.392 6.027 -0.784 c-0.588 1.519 -1.274 2.891 -2.009 4.214 c-1.568 0.294 -3.185 0.49 -4.851 0.49 c-2.891 0 -5.439 -0.539 -7.595 -1.47 c0.098 -3.038 0.588 -6.468 1.372 -10.143 l1.47 -6.958 l-4.949 0 c0.539 -1.372 1.127 -2.646 1.911 -3.871 l3.871 0 l1.029 -4.851 c1.47 -0.539 3.038 -0.931 4.655 -1.176 l-1.274 6.027 l8.526 0 c-0.539 1.372 -1.176 2.695 -1.911 3.871 l-7.448 0 l-1.47 6.958 c-0.539 2.499 -1.127 7.154 -1.127 7.154 s1.911 0.539 3.773 0.539 z M82.41799999999999 17.052 c0.049 0.686 -0.049 1.47 -0.245 2.303 c-0.196 0.882 -0.392 1.666 -0.735 2.352 c-0.735 0.196 -1.568 0.343 -2.45 0.343 c-0.833 0 -1.617 -0.147 -2.254 -0.343 c0 -0.686 0.049 -1.47 0.245 -2.352 c0.196 -0.833 0.441 -1.617 0.735 -2.303 c0.735 -0.245 1.617 -0.343 2.45 -0.343 c0.882 0 1.617 0.098 2.254 0.343 z M71.09899999999999 49 l4.802 -22.687 c1.519 0.245 2.891 0.637 4.165 1.176 l-4.557 21.511 l-4.41 0 z M92.60999999999999 38.269 l5.537 -11.221 l4.606 0 l-6.125 12.446 c-1.764 3.528 -3.626 6.762 -5.537 9.555 c-0.882 0.196 -1.372 0.343 -2.94 0.343 s-2.009 -0.147 -2.842 -0.343 c-0.735 -2.793 -1.225 -6.027 -1.421 -9.555 l-0.833 -12.446 l4.606 0 l0.735 11.221 c0.147 2.303 0.441 4.508 0.784 6.321 c1.029 -1.813 2.303 -4.018 3.43 -6.321 z M122.059 27.734 c-0.147 3.087 -0.735 7.105 -1.372 10.143 l-0.343 1.666 l-12.985 0 c-0.441 2.45 -0.833 5.488 -0.833 5.488 s1.617 0.539 3.773 0.539 c3.92 0 7.693 -1.029 8.722 -1.372 c-0.343 1.323 -0.833 2.597 -1.274 3.822 c-2.548 0.931 -5.39 1.47 -8.281 1.47 s-5.488 -0.539 -7.644 -1.47 c0.147 -3.038 0.588 -6.468 1.372 -10.143 c0.735 -3.626 1.764 -7.056 2.94 -10.143 c2.548 -0.882 5.39 -1.421 8.281 -1.421 s5.488 0.539 7.644 1.421 z M113.582 30.233 c-1.911 0 -4.018 0.539 -4.018 0.539 s-0.784 2.548 -1.421 4.9 l8.477 0 c0.441 -2.352 0.784 -4.9 0.784 -4.9 s-1.96 -0.539 -3.822 -0.539 z M143.325 27.734 c-0.147 3.087 -0.735 7.105 -1.372 10.143 l-0.343 1.666 l-12.985 0 c-0.441 2.45 -0.833 5.488 -0.833 5.488 s1.617 0.539 3.773 0.539 c3.92 0 7.693 -1.029 8.722 -1.372 c-0.343 1.323 -0.833 2.597 -1.274 3.822 c-2.548 0.931 -5.39 1.47 -8.281 1.47 s-5.488 -0.539 -7.644 -1.47 c0.147 -3.038 0.588 -6.468 1.372 -10.143 c0.735 -3.626 1.764 -7.056 2.94 -10.143 c2.548 -0.882 5.39 -1.421 8.281 -1.421 s5.488 0.539 7.644 1.421 z M134.848 30.233 c-1.911 0 -4.018 0.539 -4.018 0.539 s-0.784 2.548 -1.421 4.9 l8.477 0 c0.441 -2.352 0.784 -4.9 0.784 -4.9 s-1.96 -0.539 -3.822 -0.539 z M156.506 38.269 l5.537 -11.221 l4.606 0 l-6.125 12.446 c-1.764 3.528 -3.626 6.762 -5.537 9.555 c-0.882 0.196 -1.372 0.343 -2.94 0.343 s-2.009 -0.147 -2.842 -0.343 c-0.735 -2.793 -1.225 -6.027 -1.421 -9.555 l-0.833 -12.446 l4.606 0 l0.735 11.221 c0.147 2.303 0.441 4.508 0.784 6.321 c1.029 -1.813 2.303 -4.018 3.43 -6.321 z" style="fill: #ffffff;"/></g><g id="SvgjsG1816" rel="mainfill" name="slogan_text" xmlns:name="sloganText_mainfill" transform="translate(1.0352449417114258,43.042232513427706)" fill="#ffffff"><path fill="#ffffff" d="M9.9153 12.288 l-6.7288 0 l0 4.1356 l3.8983 0 c0.16949 0 0.28814 0.11864 0.28814 0.28814 l0 1.2712 c0 0.18644 -0.11864 0.28814 -0.28814 0.28814 l-3.8983 0 l0.016784 3.8814 l6.712 0 c0.16949 0 0.28814 0.11864 0.28814 0.28814 l0 1.2712 c0 0.16949 -0.11864 0.28814 -0.28814 0.28814 l-8.3559 0 c-0.16949 0 -0.28831 -0.11864 -0.28831 -0.28814 l0 -13 c0 -0.15254 0.10186 -0.27119 0.27119 -0.27119 l8.3731 0 c0.16949 0 0.28814 0.11864 0.28814 0.27119 l0 1.3051 c0 0.16949 -0.11864 0.27119 -0.28814 0.27119 z M20.033937288135593 15.6102 l-1.4575 -0.00016552 c-0.15254 0 -0.20339 0.084746 -0.27119 0.25441 l-2.3051 5.0846 l-2.322 -5.0846 c-0.067797 -0.16966 -0.11864 -0.25441 -0.27119 -0.25441 l-1.5254 0 c-0.15254 0 -0.23712 0.084746 -0.16933 0.25441 l3.9153 8.0168 c0.050847 0.11864 0.18644 0.20339 0.28814 0.20339 l0.16949 0 c0.10169 0 0.23712 -0.084746 0.28797 -0.20339 l3.8814 -8.0168 c0.08458 -0.15254 -0.067963 -0.25424 -0.22051 -0.25424 z M28.57626440677966 20.4915 c0.61 0 1.0336 -0.30508 1.0336 -1.0169 c0 -2.0847 -1.6102 -3.9831 -4.0847 -3.9831 c-2.3559 0 -4.2034 1.8644 -4.2034 4.3051 c0 2.5422 1.9322 4.288 4.3051 4.288 c1.5085 0 2.6949 -0.61017 3.4237 -1.5932 c0.10186 -0.13559 0.067963 -0.23729 -0.033568 -0.37288 l-0.32203 -0.42373 c-0.13559 -0.16933 -0.27119 -0.15254 -0.44085 -0.050847 c-0.5422 0.44068 -1.4405 0.81373 -2.4236 0.81373 c-1.3898 0 -2.3729 -0.84746 -2.5593 -1.9661 l5.3051 0 z M23.27106440677966 19.0508 c0.067797 -0.81356 0.83051 -1.8644 2.2203 -1.8644 c1.4068 0 2.1356 1.0678 2.1864 1.8644 l-4.4068 0 z M37.186288135593216 16.0341 c0.18644 0.11864 0.23729 0.22017 0.11848 0.40661 l-0.69475 1.0169 c-0.084746 0.11864 -0.20339 0.15254 -0.35593 0.11864 c-0.35593 -0.16949 -0.66102 -0.32203 -1.2203 -0.32203 s-1.4407 0.23729 -1.9153 1.2881 l0 5.1866 c0 0.15238 -0.10169 0.27102 -0.25424 0.27102 l-1.339 0 c-0.15254 0 -0.25424 -0.11864 -0.25424 -0.27102 l0 -7.8476 c0 -0.15238 0.11864 -0.27119 0.25424 -0.27119 l0.9322 0 c0.40678 0 0.66102 0.42373 0.66102 0.72881 l0 0.11881 c0.59322 -0.54237 1.3051 -0.91525 2.2373 -0.91525 c0.86441 0 1.5085 0.27119 1.8305 0.49153 z M46.847413559322035 15.6102 c0.20339 0 0.30525 0.13543 0.20356 0.32203 l-3.3559 6.8983 c-1.678 3.4914 -3.1525 5.5083 -3.9492 6.288 c-0.15254 0.13559 -0.33898 0.067797 -0.50847 -0.10169 l-0.72881 -0.72881 c-0.18644 -0.16949 -0.15254 -0.33898 0.016949 -0.54237 c1.0339 -1.1695 2.3729 -3.1017 3.2373 -5.0507 l-3.5254 -6.7797 c-0.084746 -0.16949 0 -0.30508 0.18644 -0.30508 l1.4915 0 c0.15238 0 0.23712 0.067797 0.30492 0.18661 l2.4915 5.0846 l2.3729 -5.0678 c0.067797 -0.13559 0.16949 -0.20339 0.32203 -0.20339 l1.4407 0 z  M55.2540406779661 10.441 c0.42373 0 0.66085 0.2878 0.66085 0.67763 l0 14.39 c-0.016949 1.661 -0.91525 2.9832 -2.2203 3.6781 c-0.18644 0.084746 -0.30525 0.067797 -0.38983 -0.084746 l-0.64407 -1.2373 c-0.08458 -0.16933 -0.050681 -0.28814 0.13576 -0.35593 c0.71186 -0.40678 1.2034 -1.1015 1.2034 -2.0507 l0 -13.83 c-0.016949 -0.37288 -0.067797 -0.59322 -0.10169 -0.84746 c-0.033898 -0.18644 0.016949 -0.33898 0.18644 -0.33898 l1.1695 0 z M62.28798644067797 24.11864 c2.3729 0 4.339 -1.8812 4.339 -4.3049 c0 -2.4746 -1.9661 -4.322 -4.339 -4.322 s-4.339 1.8475 -4.339 4.322 c0 2.4237 1.9661 4.3049 4.339 4.3049 z M62.28798644067797 22.39 c-1.4576 0 -2.5424 -1.2034 -2.5424 -2.5593 c0 -1.4068 1.0847 -2.6102 2.5424 -2.6102 s2.5424 1.2034 2.5424 2.6102 c0 1.3559 -1.0847 2.5593 -2.5424 2.5593 z M76.03388474576272 15.6102 c0.15254 0 0.25424 0.11881 0.25424 0.28831 l0 7.8305 c0 0.15238 -0.10169 0.27102 -0.23729 0.27102 l-1.0508 0 c-0.28814 0 -0.52542 -0.42356 -0.54237 -0.71169 l0 -0.18644 c-0.66102 0.50847 -1.5593 0.99983 -2.7119 0.99983 c-1.7458 0 -3.4915 -1.1015 -3.4915 -3.2202 l0 -3.7458 c0 -0.45763 -0.033898 -0.81356 -0.084746 -1.1695 c-0.033898 -0.18644 0.016949 -0.35593 0.16949 -0.35593 l1.1017 0 c0.42373 0 0.66102 0.28814 0.66102 0.67797 l0 4.4237 c0 1.1186 0.76271 1.7458 1.8983 1.7458 c0.9661 0 1.7627 -0.54237 2.4576 -1.2373 l0 -5.322 c0 -0.16949 0.10169 -0.28831 0.25407 -0.28831 l1.3222 0 z M84.16933898305085 16.0341 c0.18644 0.11864 0.23729 0.22017 0.11848 0.40661 l-0.69475 1.0169 c-0.084746 0.11864 -0.20339 0.15254 -0.35593 0.11864 c-0.35593 -0.16949 -0.66102 -0.32203 -1.2203 -0.32203 s-1.4407 0.23729 -1.9153 1.2881 l0 5.1866 c0 0.15238 -0.10169 0.27102 -0.25424 0.27102 l-1.339 0 c-0.15254 0 -0.25424 -0.11864 -0.25424 -0.27102 l0 -7.8476 c0 -0.15238 0.11864 -0.27119 0.25424 -0.27119 l0.9322 0 c0.40678 0 0.66102 0.42373 0.66102 0.72881 l0 0.11881 c0.59322 -0.54237 1.3051 -0.91525 2.2373 -0.91525 c0.86441 0 1.5085 0.27119 1.8305 0.49153 z M93.86426440677967 23.64424 c0.033898 0.18644 -0.016784 0.35576 -0.16916 0.35576 l-1.1017 0 c-0.44068 0 -0.66102 -0.28797 -0.66102 -0.6778 l0 -4.4068 c0 -1.1186 -0.77966 -1.7627 -1.8983 -1.7627 c-0.9661 0 -1.7797 0.45763 -2.4575 1.1186 l0 5.4578 c0 0.15238 -0.11864 0.27102 -0.27119 0.27102 l-1.3222 0 c-0.15238 0 -0.25407 -0.11864 -0.25407 -0.27102 l0 -7.8476 c0 -0.15238 0.10169 -0.27119 0.25407 -0.27119 l0.91525 0 c0.40678 0 0.66102 0.42373 0.67797 0.72881 l0 0.16949 c0.66102 -0.50864 1.5422 -1.0171 2.6947 -1.0171 c1.7458 0 3.4915 1.1019 3.4915 3.2205 l0 3.7627 c0.016784 0.47458 0.050681 0.83051 0.10153 1.1695 z M102.59321355932205 20.4915 c0.61 0 1.0336 -0.30508 1.0336 -1.0169 c0 -2.0847 -1.6102 -3.9831 -4.0847 -3.9831 c-2.3559 0 -4.2034 1.8644 -4.2034 4.3051 c0 2.5422 1.9322 4.288 4.3051 4.288 c1.5085 0 2.6949 -0.61017 3.4237 -1.5932 c0.10186 -0.13559 0.067963 -0.23729 -0.033568 -0.37288 l-0.32203 -0.42373 c-0.13559 -0.16933 -0.27119 -0.15254 -0.44085 -0.050847 c-0.5422 0.44068 -1.4405 0.81373 -2.4236 0.81373 c-1.3898 0 -2.3729 -0.84746 -2.5593 -1.9661 l5.3051 0 z M97.28801355932205 19.0508 c0.067797 -0.81356 0.83051 -1.8644 2.2203 -1.8644 c1.4068 0 2.1356 1.0678 2.1864 1.8644 l-4.4068 0 z M113.37283728813561 15.6102 c0.20339 0 0.30525 0.13543 0.20356 0.32203 l-3.3559 6.8983 c-1.678 3.4914 -3.1525 5.5083 -3.9492 6.288 c-0.15254 0.13559 -0.33898 0.067797 -0.50847 -0.10169 l-0.72881 -0.72881 c-0.18644 -0.16949 -0.15254 -0.33898 0.016949 -0.54237 c1.0339 -1.1695 2.3729 -3.1017 3.2373 -5.0507 l-3.5254 -6.7797 c-0.084746 -0.16949 0 -0.30508 0.18644 -0.30508 l1.4915 0 c0.15238 0 0.23712 0.067797 0.30492 0.18661 l2.4915 5.0846 l2.3729 -5.0678 c0.067797 -0.13559 0.16949 -0.20339 0.32203 -0.20339 l1.4407 0 z  M119.55932440677968 21.678 l0.74576 -0.84763 c0.18644 -0.20339 0.38983 -0.20339 0.5422 -0.084746 c0.4578 0.38983 1.6103 1.5424 3.1527 1.5424 c1.6949 0 2.7119 -0.81356 2.7119 -1.9322 c0 -1.3898 -1.5257 -1.7797 -2.9834 -2.339 c-2.2203 -0.88136 -3.9831 -1.8644 -3.9831 -3.9831 c0 -1.7288 1.2712 -3.6949 4.322 -3.6949 c2.0847 0 3.5932 1.2034 4.0169 1.6102 c0.15254 0.15254 0.23729 0.35593 0.10169 0.52542 l-0.66102 0.86441 c-0.13559 0.18661 -0.32203 0.25441 -0.54237 0.10186 c-0.44068 -0.33898 -1.4915 -1.2881 -2.8983 -1.2881 c-1.5254 0 -2.4237 0.84746 -2.4237 1.8814 c0 1.1695 1.1186 1.6441 2.712 2.2542 c2.0339 0.81356 4.2373 1.7627 4.2373 4.0847 c0 1.9831 -1.8981 3.7456 -4.5931 3.7456 c-2.4407 0 -3.9492 -1.5761 -4.3729 -1.9829 c-0.13559 -0.11864 -0.25424 -0.27102 -0.084746 -0.45763 z M137.60998135593223 23.62712 c-0.22034 -1.661 -0.2368 -3.2032 -0.16916 -4.8302 c0.084746 -2 -1.0169 -3.2881 -3.0847 -3.2881 c-1.3559 0 -2.7627 0.40678 -3.5932 0.86441 c-0.15254 0.084746 -0.25424 0.23712 -0.18644 0.38966 l0.42373 0.98305 c0.067797 0.16949 0.18644 0.22034 0.40678 0.11864 c1.0847 -0.49153 1.9661 -0.72881 2.8305 -0.72881 c0.91525 0 1.4576 0.35593 1.4237 1.322 c-3.1356 0.5422 -5.5254 1.1015 -5.5254 3.3049 c0 1.4746 1.0678 2.3219 2.7966 2.3219 c1.4408 0 2.1864 -0.44051 2.8983 -0.98288 c0.08458 0.50847 0.23712 0.89831 0.5761 0.89831 l1.0169 0 c0.15238 0 0.20322 -0.18644 0.18627 -0.37288 z M133.25438135593222 22.627299999999998 c-0.69492 0 -1.2373 -0.23729 -1.2373 -0.88136 c0 -1.0339 1.8981 -1.3729 3.6102 -1.7288 c-0.016949 0.55932 -0.016949 1.3051 0 1.7966 c-0.55932 0.42373 -1.5085 0.81356 -2.3729 0.81356 z M146.22017288135595 10.932 c0.11864 0.067631 0.18627 0.22017 0.11848 0.35576 l-0.47458 1.0508 c-0.067797 0.15254 -0.20339 0.18644 -0.37288 0.13559 c-0.23729 -0.11864 -0.72881 -0.37288 -1.3729 -0.37288 s-1.7119 0.35593 -1.7119 1.661 l0 1.8475 l2.0169 0 c0.13559 0 0.22034 0.084746 0.22034 0.22034 l0 1.2881 c0 0.11864 -0.084746 0.20339 -0.22034 0.20339 l-2.0169 0 l0 6.3898 c0 0.16949 -0.10169 0.28814 -0.27119 0.28814 l-0.9322 0 c-0.42373 0 -0.64407 -0.28797 -0.64407 -0.69475 l0 -5.9831 l-1.2034 0 c-0.13559 0 -0.22034 -0.067797 -0.22034 -0.18644 l0 -1.0339 c0 -0.32203 0.20339 -0.49153 0.50847 -0.49153 l0.91525 0 l0 -1.8475 c0 -2.3051 1.5254 -3.4069 3.5086 -3.4069 c0.84746 0 1.5932 0.23746 2.1525 0.57644 z M153.6271118644068 20.4915 c0.61 0 1.0336 -0.30508 1.0336 -1.0169 c0 -2.0847 -1.6102 -3.9831 -4.0847 -3.9831 c-2.3559 0 -4.2034 1.8644 -4.2034 4.3051 c0 2.5422 1.9322 4.288 4.3051 4.288 c1.5085 0 2.6949 -0.61017 3.4237 -1.5932 c0.10186 -0.13559 0.067963 -0.23729 -0.033568 -0.37288 l-0.32203 -0.42373 c-0.13559 -0.16933 -0.27119 -0.15254 -0.44085 -0.050847 c-0.5422 0.44068 -1.4405 0.81373 -2.4236 0.81373 c-1.3898 0 -2.3729 -0.84746 -2.5593 -1.9661 l5.3051 0 z M148.32191186440681 19.0508 c0.067797 -0.81356 0.83051 -1.8644 2.2203 -1.8644 c1.4068 0 2.1356 1.0678 2.1864 1.8644 l-4.4068 0 z M162.2371355932204 16.0341 c0.18644 0.11864 0.23729 0.22017 0.11848 0.40661 l-0.69475 1.0169 c-0.084746 0.11864 -0.20339 0.15254 -0.35593 0.11864 c-0.35593 -0.16949 -0.66102 -0.32203 -1.2203 -0.32203 s-1.4407 0.23729 -1.9153 1.2881 l0 5.1866 c0 0.15238 -0.10169 0.27102 -0.25424 0.27102 l-1.339 0 c-0.15254 0 -0.25424 -0.11864 -0.25424 -0.27102 l0 -7.8476 c0 -0.15238 0.11864 -0.27119 0.25424 -0.27119 l0.9322 0 c0.40678 0 0.66102 0.42373 0.66102 0.72881 l0 0.11881 c0.59322 -0.54237 1.3051 -0.91525 2.2373 -0.91525 c0.86441 0 1.5085 0.27119 1.8305 0.49153 z" style="fill: #ffffff;"/></g><defs id="SvgjsDefs1814"/><g id="SvgjsG1817" fill="#ffffff" rel="mainfill" name="symbol" xmlns:name="symbol_mainfill" transform="translate(82.90176075546557,-0.0000032658635935345103) scale(0.0002494541217551022)">   <title xmlns="http://www.w3.org/2000/svg">assets</title>   <path xmlns="http://www.w3.org/2000/svg" d="M577.21,131.86l4.06,12.5a3.36,3.36,0,0,0,3.19,2.32h13.14a2.36,2.36,0,0,1,1.39,4.27l-10.63,7.72a3.36,3.36,0,0,0-1.22,3.75l4.06,12.5a2.36,2.36,0,0,1-3.63,2.64l-10.63-7.72a3.36,3.36,0,0,0-3.94,0l-10.63,7.72a2.36,2.36,0,0,1-3.63-2.64l4.06-12.5a3.36,3.36,0,0,0-1.22-3.75l-10.63-7.72a2.36,2.36,0,0,1,1.39-4.27h13.14a3.36,3.36,0,0,0,3.19-2.32l4.06-12.5A2.36,2.36,0,0,1,577.21,131.86Z" transform="translate(-549.97 -130.23)" fill="#ffffff" style="fill: #ffffff;"/> </g>
                </g>
            </svg>
        